<?xml version="1.0" standalone="no"?>
<!DOCTYPE svg PUBLIC "-//W3C//DTD SVG 20010904//EN"
 "http://www.w3.org/TR/2001/REC-SVG-20010904/DTD/svg10.dtd">
<svg version="1.0" xmlns="http://www.w3.org/2000/svg"
 width="287.000000pt" height="80.000000pt" viewBox="0 0 287.000000 80.000000"
 preserveAspectRatio="xMidYMid meet">

<g transform="translate(0.000000,80.000000) scale(0.100000,-0.100000)"
fill="#000000" stroke="none">
<path d="M1 408 l-1 -398 1430 0 1430 0 0 385 0 385 -1424 0 c-1130 0 -1425 3
-1429 13 -3 6 -6 -167 -6 -385z m889 106 c0 -38 -105 -284 -127 -297 -5 -3
-21 5 -37 18 -26 20 -28 27 -19 47 9 20 6 26 -20 45 -36 27 -41 24 -92 -53
l-36 -54 -30 20 c-16 12 -29 26 -29 32 0 6 18 35 39 63 29 39 37 55 28 64 -17
17 31 64 59 57 14 -4 28 2 40 15 10 12 38 35 62 51 40 28 45 29 61 14 17 -16
19 -15 25 14 l6 31 35 -28 c19 -15 35 -33 35 -39z m674 39 c25 -16 46 -34 46
-41 0 -16 -47 -109 -60 -117 -10 -6 -70 21 -70 33 1 4 7 18 15 32 26 46 13 47
-44 2 l-24 -19 42 -75 c22 -42 41 -82 41 -89 0 -8 -10 -27 -23 -42 l-23 -29
-59 17 c-74 22 -154 61 -161 80 -3 7 2 25 11 39 l17 25 69 -34 c38 -20 69 -33
69 -31 0 3 -18 34 -40 68 -22 35 -40 71 -40 80 0 28 134 128 172 128 9 0 37
-12 62 -27z m-1062 -14 c26 -17 48 -35 48 -41 0 -13 -48 -94 -63 -106 -8 -7
-23 -6 -45 4 l-34 14 21 34 c37 59 24 62 -38 10 -37 -32 -101 -125 -101 -147
0 -9 60 1 112 19 34 12 39 11 48 -6 26 -48 -2 -69 -123 -91 -65 -12 -66 -12
-101 15 -20 15 -36 35 -36 44 1 28 38 102 78 155 37 49 141 127 170 127 8 0
37 -14 64 -31z m681 5 c41 -14 52 -23 70 -60 20 -42 20 -44 3 -63 -10 -11 -47
-35 -82 -53 -35 -18 -64 -36 -64 -40 0 -3 14 -20 30 -36 17 -17 30 -34 30 -39
0 -9 -56 -43 -70 -43 -5 0 -25 24 -46 53 -21 28 -41 56 -45 61 -4 5 -22 -17
-39 -48 l-32 -56 -29 20 c-15 12 -31 24 -33 29 -7 10 42 94 97 166 45 59 45
60 21 63 -27 4 -28 9 -14 48 10 27 11 27 83 21 40 -3 94 -13 120 -23z m647
-27 c0 -5 -13 -26 -30 -47 -16 -21 -30 -42 -30 -47 0 -9 50 -37 55 -31 41 58
98 138 109 152 14 18 16 18 45 -5 35 -28 38 -40 13 -63 -11 -9 -36 -41 -57
-71 -36 -53 -37 -56 -20 -75 17 -19 15 -30 -13 -63 -14 -15 -17 -16 -32 -2
-15 13 -18 12 -33 -20 -20 -41 -23 -42 -60 -11 -28 23 -29 24 -13 54 16 31 16
31 -15 48 -36 18 -34 20 -76 -61 -14 -27 -27 -52 -28 -53 -7 -8 -65 43 -65 56
0 8 13 37 30 63 16 27 26 49 22 49 -4 0 -13 4 -21 9 -23 15 24 73 52 66 18 -5
31 5 65 50 l43 55 30 -22 c16 -12 29 -26 29 -31z m463 12 c32 -22 57 -42 57
-45 0 -3 -15 -38 -34 -78 -42 -92 -96 -147 -170 -175 -73 -27 -74 -27 -124 10
-40 29 -42 33 -36 68 10 53 32 101 67 145 34 42 140 116 167 116 9 0 42 -18
73 -41z m289 30 c77 -16 102 -33 123 -78 18 -40 18 -42 -1 -63 -31 -34 -134
-97 -172 -104 -29 -6 -38 -3 -51 15 -16 21 -17 21 -51 -44 -19 -35 -37 -65
-40 -65 -3 1 -18 12 -35 25 l-30 25 29 56 c16 31 49 82 73 113 38 47 42 57 26
59 -29 6 -35 17 -22 45 10 23 18 27 55 27 24 0 67 -5 96 -11z"/>
<path d="M745 439 c-33 -29 -34 -32 -18 -45 27 -20 30 -18 46 31 9 25 14 45
12 45 -2 0 -20 -14 -40 -31z"/>
<path d="M1096 475 c3 -7 -6 -26 -20 -43 -15 -16 -26 -33 -26 -36 0 -3 27 7
60 24 33 17 60 34 60 39 0 5 -18 13 -39 19 -30 7 -38 7 -35 -3z"/>
<path d="M2166 449 c-59 -51 -114 -159 -81 -159 24 0 99 65 130 112 22 34 35
45 48 42 27 -8 20 4 -13 21 -39 20 -44 20 -84 -16z"/>
<path d="M2547 474 c3 -7 -9 -32 -27 -54 -17 -22 -28 -40 -23 -40 16 0 124 65
124 75 0 6 -18 15 -40 22 -33 9 -39 9 -34 -3z"/>
</g>
</svg>
